<svg id="Capa_1" data-name="Capa 1" xmlns="http://www.w3.org/2000/svg" viewBox="0 0 10.41 6.42"><path d="M2.83,4.25H3.2l2.24,4,2.23-4H8v6.41H2.83Zm.34,6.08h4.5V4.94L5.59,8.59H5.27L3.17,4.88Z" transform="translate(-2.83 -4.25)"/><path d="M13.24,10.67H8.3V4.26h2.5a2.65,2.65,0,0,1,1.31.28,2.07,2.07,0,0,1,1.05,1.82,2.08,2.08,0,0,1-.44,1.29,2.19,2.19,0,0,1-1.12.75ZM8.64,4.82V8.13H11Zm0,5.51h3.95L11.24,8.46H8.64ZM8.88,4.6l2.51,3.5a1.77,1.77,0,0,0,1-.62,1.79,1.79,0,0,0,.15-2,1.61,1.61,0,0,0-.7-.64,2.44,2.44,0,0,0-1.06-.2Z" transform="translate(-2.83 -4.25)"/></svg>