<svg id="Capa_1" data-name="Capa 1" xmlns="http://www.w3.org/2000/svg" viewBox="0 0 140.78 51.37"><defs><style>.cls-1{fill:none;stroke:#020202;stroke-miterlimit:10;}</style></defs><path class="cls-1" d="M7.92,13.66v.1c0,.93,0,1.65,0,2.17V34H2.74V7.29h8.11l4.86,21,4.82-21h8V34h-5.2V15.93c0-.52,0-1.24,0-2.17s0-1.67,0-2.18L18.34,34H12.92l-5-22.42c0,.49,0,1.18,0,2.08" transform="translate(-2.24 -6.18)"/><path class="cls-1" d="M41.06,23.91h6.78L44.5,13.4ZM41.4,7.29h6.31L57.17,34H51.12l-1.73-5.49H39.55L37.71,34H31.87Z" transform="translate(-2.24 -6.18)"/><path class="cls-1" d="M80.13,7.29V12h-8V34H66.52V12h-8V7.29Z" transform="translate(-2.24 -6.18)"/><path class="cls-1" d="M89.59,34H84V7.29h5.55Z" transform="translate(-2.24 -6.18)"/><path class="cls-1" d="M102.17,23.91H109L105.61,13.4Zm.34-16.62h6.31L118.28,34h-6l-1.72-5.49h-9.84L98.82,34H93Z" transform="translate(-2.24 -6.18)"/><path class="cls-1" d="M125.85,41a15,15,0,0,0,1,4.88,4.77,4.77,0,0,0,4.68,2.94,6,6,0,0,0,3.23-.78c1.56-1,2.35-2.83,2.35-5.52a5.25,5.25,0,0,0-1.17-3.65,9.86,9.86,0,0,0-3.66-2.23l-2.84-1.13c-2.8-1.12-4.73-2.33-5.79-3.65q-2.72-3.28-2.72-10.3a19.85,19.85,0,0,1,2.63-10.63,8.49,8.49,0,0,1,7.7-4.23q4.25,0,7.23,4t3.15,11.56h-5.39q-.15-4.29-2.11-6.11A4.69,4.69,0,0,0,130.88,15a4.28,4.28,0,0,0-3.46,1.55,6.53,6.53,0,0,0-1.3,4.33,5.14,5.14,0,0,0,1.28,3.81,11.52,11.52,0,0,0,3.5,2l4.62,2A10.43,10.43,0,0,1,140.11,32q2.4,3.36,2.41,9.72a19.47,19.47,0,0,1-2.83,10.85,8.93,8.93,0,0,1-7.94,4.3,9.57,9.57,0,0,1-8.25-4.23c-2-2.85-3-6.74-3-11.7Z" transform="translate(-2.24 -6.18)"/><path class="cls-1" d="M6.59,43.24v4.35h3.83a4.43,4.43,0,0,0,1.72-.26,1.82,1.82,0,0,0,1-1.83,2,2,0,0,0-1-2,3.74,3.74,0,0,0-1.65-.28Zm4.64-2.82a7.68,7.68,0,0,1,2.61.42A4.13,4.13,0,0,1,15.4,42a5.2,5.2,0,0,1,.84,1.37,4.52,4.52,0,0,1,.31,1.7A4.9,4.9,0,0,1,16,47.32,3.28,3.28,0,0,1,14,48.89a3,3,0,0,1,1.58,1.29,5.15,5.15,0,0,1,.48,2.52v1.09a8.53,8.53,0,0,0,.08,1.51,1.37,1.37,0,0,0,.62.92v.41H13.07c-.1-.36-.17-.65-.22-.87a8,8,0,0,1-.14-1.4l0-1.5a3,3,0,0,0-.57-2.07,3,3,0,0,0-2-.52H6.59v6.36H3.28V40.42Z" transform="translate(-2.24 -6.18)"/><path class="cls-1" d="M38.24,54.05a17.87,17.87,0,0,0,8-1.48q3-1.47,3-4.2c0-1.81-1-3.2-3-4.19a17.86,17.86,0,0,0-8-1.49,18.27,18.27,0,0,0-8,1.48c-2,1-3,2.39-3,4.2s1,3.22,3,4.2A18.27,18.27,0,0,0,38.24,54.05Zm19.41-5.68q0,4.35-6.13,6.66-4.59,1.88-13.28,1.88T25,55q-6.15-2.31-6.16-6.66T25,41.72q4.59-1.89,13.28-1.88t13.28,1.88Q57.66,43.94,57.65,48.37Z" transform="translate(-2.24 -6.18)"/><path class="cls-1" d="M61.82,51.63a3.32,3.32,0,0,0,.6,1.66,3.5,3.5,0,0,0,2.83,1A5.8,5.8,0,0,0,67.19,54a1.87,1.87,0,0,0,1.42-1.88,1.38,1.38,0,0,0-.7-1.24,7.8,7.8,0,0,0-2.21-.76L64,49.76a11,11,0,0,1-3.49-1.24A3.94,3.94,0,0,1,58.85,45a4.71,4.71,0,0,1,1.58-3.62A6.71,6.71,0,0,1,65.08,40a7.11,7.11,0,0,1,4.37,1.36,4.85,4.85,0,0,1,1.9,3.94H68.09a2.32,2.32,0,0,0-1.27-2.08,4.32,4.32,0,0,0-2-.4,3.7,3.7,0,0,0-2.09.52A1.7,1.7,0,0,0,62,44.77a1.38,1.38,0,0,0,.77,1.29,9.06,9.06,0,0,0,2.11.67l2.79.67a7.27,7.27,0,0,1,2.77,1.18,4,4,0,0,1,1.46,3.31,4.66,4.66,0,0,1-1.71,3.69,7.09,7.09,0,0,1-4.79,1.47,7.81,7.81,0,0,1-5-1.44,4.83,4.83,0,0,1-1.82-4Z" transform="translate(-2.24 -6.18)"/><path class="cls-1" d="M90.4,50.34h12.66L96.83,44Zm.64-10h11.78L120.5,56.41H109.19L106,53.11H87.59l-3.45,3.3H73.24Z" transform="translate(-2.24 -6.18)"/></svg>