<svg width="144" height="62" viewBox="0 0 144 62" fill="none" xmlns="http://www.w3.org/2000/svg">
<path d="M20.532 7.2885H28.5599V34H23.359V15.9326C23.359 15.4131 23.365 14.6882 23.3771 13.758C23.3892 12.8156 23.3952 12.0908 23.3952 11.5834L18.3392 34H12.9208L7.9011 11.5834C7.9011 12.0908 7.90714 12.8156 7.91922 13.758C7.9313 14.6882 7.93734 15.4131 7.93734 15.9326V34H2.73639V7.2885H10.8549L15.7116 28.2916L20.532 7.2885Z" fill="white"/>
<path d="M41.0578 23.9062H47.8354L44.5009 13.3955L41.0578 23.9062ZM41.4021 7.2885H47.7085L57.1681 34H51.1154L49.3938 28.5091H39.5537L37.7053 34H31.8701L41.4021 7.2885Z" fill="white"/>
<path d="M80.1324 7.2885V12.0183H72.1407V34H66.5229V12.0183H58.495V7.2885H80.1324Z" fill="white"/>
<path d="M89.5868 34H84.0415V7.2885H89.5868V34Z" fill="white"/>
<path d="M102.171 23.9062H108.949L105.614 13.3955L102.171 23.9062ZM102.515 7.2885H108.822L118.281 34H112.229L110.507 28.5091H100.667L98.8186 34H92.9833L102.515 7.2885Z" fill="white"/>
<path d="M125.85 40.9835C126.02 43.1584 126.354 44.7841 126.852 45.8608C127.762 47.8203 129.323 48.8001 131.533 48.8001C132.856 48.8001 133.931 48.5417 134.757 48.0249C136.323 47.0344 137.106 45.1933 137.106 42.5016C137.106 40.9296 136.718 39.713 135.941 38.8517C135.163 38.0119 133.943 37.2689 132.28 36.6229L129.438 35.4924C126.645 34.3727 124.715 33.1561 123.646 31.8425C121.837 29.6461 120.932 26.2115 120.932 21.5388C120.932 17.2751 121.807 13.7329 123.555 10.912C125.304 8.09111 127.872 6.68066 131.26 6.68066C134.089 6.68066 136.499 8.01574 138.49 10.6859C140.494 13.3345 141.544 17.189 141.641 22.2494H136.25C136.153 19.3854 135.449 17.3505 134.137 16.1446C133.263 15.3479 132.176 14.9495 130.877 14.9495C129.432 14.9495 128.279 15.4663 127.416 16.4999C126.554 17.5335 126.123 18.9763 126.123 20.8281C126.123 22.5293 126.548 23.7998 127.398 24.6396C127.945 25.1994 129.11 25.8562 130.895 26.6099L135.522 28.5802C137.549 29.4415 139.079 30.5936 140.111 32.0363C141.714 34.2758 142.516 37.5166 142.516 41.7587C142.516 46.1084 141.575 49.7261 139.693 52.6115C137.823 55.4755 135.176 56.9075 131.751 56.9075C128.254 56.9075 125.504 55.497 123.5 52.6761C121.497 49.8337 120.495 45.9362 120.495 40.9835H125.85Z" fill="white"/>
<path d="M6.58553 43.2384V47.5919H10.4224C11.1846 47.5919 11.7563 47.504 12.1374 47.3281C12.8117 47.0203 13.1489 46.4119 13.1489 45.5031C13.1489 44.521 12.8227 43.8613 12.1704 43.5242C11.804 43.3336 11.2543 43.2384 10.5213 43.2384H6.58553ZM11.225 40.4239C12.361 40.4459 13.2332 40.5852 13.8415 40.8417C14.4572 41.0982 14.9775 41.4757 15.4026 41.9741C15.7544 42.3845 16.0329 42.8389 16.2382 43.3373C16.4434 43.8357 16.546 44.4037 16.546 45.0414C16.546 45.8109 16.3518 46.5695 15.9633 47.3171C15.5749 48.0573 14.9336 48.5814 14.0394 48.8892C14.787 49.1897 15.3147 49.6185 15.6225 50.1755C15.9377 50.7252 16.0952 51.5681 16.0952 52.7041V53.7925C16.0952 54.5327 16.1246 55.0348 16.1832 55.2986C16.2711 55.7164 16.4764 56.0242 16.7988 56.2221V56.6289H13.0719C12.9693 56.2698 12.896 55.9803 12.852 55.7604C12.7641 55.306 12.7165 54.8406 12.7091 54.3642L12.6871 52.858C12.6725 51.8246 12.4819 51.1356 12.1155 50.7912C11.7563 50.4467 11.0784 50.2744 10.0816 50.2744H6.58553V56.6289H3.27638V40.4239H11.225Z" fill="white"/>
<path d="M38.2406 54.0518C41.5946 54.0518 44.2521 53.5593 46.2131 52.5744C48.1925 51.5895 49.1822 50.1887 49.1822 48.372C49.1822 46.5627 48.1925 45.1655 46.2131 44.1806C44.2521 43.1884 41.5946 42.6922 38.2406 42.6922C34.8867 42.6922 32.2108 43.1847 30.2131 44.1696C28.2154 45.1546 27.2166 46.5554 27.2166 48.372C27.2166 50.1887 28.2154 51.5895 30.2131 52.5744C32.2108 53.5593 34.8867 54.0518 38.2406 54.0518ZM57.6496 48.372C57.6496 51.2685 55.606 53.4864 51.519 55.0258C48.4583 56.2807 44.0321 56.9081 38.2406 56.9081C32.4491 56.9081 28.023 56.2807 24.9623 55.0258C20.8569 53.4864 18.8042 51.2685 18.8042 48.372C18.8042 45.4172 20.8569 43.1993 24.9623 41.7183C28.023 40.4634 32.4491 39.8359 38.2406 39.8359C44.0321 39.8359 48.4583 40.4634 51.519 41.7183C55.606 43.1993 57.6496 45.4172 57.6496 48.372Z" fill="white"/>
<path d="M61.8161 51.6267C61.9187 52.3669 62.1203 52.9203 62.4208 53.2868C62.9705 53.9537 63.9123 54.2872 65.2462 54.2872C66.0451 54.2872 66.6937 54.1993 67.1921 54.0234C68.1376 53.6862 68.6103 53.0596 68.6103 52.1434C68.6103 51.6084 68.3758 51.1943 67.9067 50.9011C67.4376 50.6153 66.701 50.3624 65.6969 50.1425L63.9819 49.7577C62.2962 49.3766 61.1308 48.9625 60.4858 48.5154C59.3938 47.7678 58.8477 46.5988 58.8477 45.0084C58.8477 43.5572 59.3755 42.3515 60.4309 41.3914C61.4863 40.4313 63.0364 39.9512 65.0813 39.9512C66.789 39.9512 68.2438 40.4056 69.4458 41.3144C70.6552 42.2159 71.2892 43.5279 71.3478 45.2502H68.0936C68.035 44.2755 67.6099 43.5828 66.8183 43.1724C66.2906 42.9012 65.6346 42.7656 64.8504 42.7656C63.9782 42.7656 63.2819 42.9415 62.7616 43.2933C62.2412 43.6451 61.981 44.1362 61.981 44.7665C61.981 45.3455 62.2375 45.7779 62.7506 46.0638C63.0804 46.2543 63.784 46.4779 64.8614 46.7344L67.6538 47.405C68.8778 47.6982 69.8013 48.0903 70.4243 48.5814C71.3918 49.3436 71.8755 50.4467 71.8755 51.8905C71.8755 53.3711 71.3075 54.6024 70.1714 55.5845C69.0427 56.5593 67.445 57.0467 65.3781 57.0467C63.2673 57.0467 61.6072 56.5666 60.3979 55.6065C59.1886 54.639 58.5839 53.3124 58.5839 51.6267H61.8161Z" fill="white"/>
<path d="M90.4004 50.3353H103.061L96.8323 44.007L90.4004 50.3353ZM91.0436 40.3301H102.824L120.495 56.4126H109.188L105.972 53.1066H87.5907L84.1377 56.4126H73.2373L91.0436 40.3301Z" fill="white"/>
</svg>
